# xmcd
#
# Track frame offsets: 
#        150
#        23530
#        47000
#        67317
#        89967
#        107057
#
# Disc length: 1720 seconds
#
# Revision: 1
# Processed by: cddbd v1.5.2PL0 Copyright (c) Steve Scherf et al.
# Submitted via: ExactAudioCopy v0.95b4
#
DISCID=5106b606
DTITLE=Alexis Hightower - Lucy's Blues
DYEAR=1999
DGENRE=Acoustic
TTITLE0=Que Sera Sera Sera
TTITLE1=December Money,  January Rain
TTITLE2=I've Paid My Dues
TTITLE3=Angel Juice
TTITLE4=Bye Bye Blackbirds
TTITLE5=Do Do Do Do Do 
EXTD=
EXTT0=
EXTT1=
EXTT2=
EXTT3=
EXTT4=
EXTT5=
PLAYORDER=
